<?xml version="1.0" encoding="utf-8"?>
<!-- Generator: Adobe Illustrator 19.2.1, SVG Export Plug-In . SVG Version: 6.00 Build 0)  -->
<svg version="1.1" id="Слой_1" xmlns="http://www.w3.org/2000/svg" xmlns:xlink="http://www.w3.org/1999/xlink" x="0px" y="0px"
	 viewBox="0 0 419.5 272" style="enable-background:new 0 0 419.5 272;" xml:space="preserve">
<style type="text/css">
	.st0{fill:#2B3B7D;}
	.st1{clip-path:url(#SVGID_2_);}
	.st2{fill:#1C9DD8;}
	.st3{fill:none;}
</style>
<g id="Layer_x0020_1">
	<g id="_1988983620192">
		<path class="st0" d="M143.5,8.6H193c0.9,0,1.6,0.7,1.6,1.6v33.7h30.2V10.2c0-0.9,0.7-1.6,1.6-1.6H276c0.9,0,1.6,0.7,1.6,1.6V126
			c0,0.9-0.7,1.6-1.6,1.6h-49.5c-0.9,0-1.6-0.7-1.6-1.6V93.2h-30.2V126c0,0.9-0.7,1.6-1.6,1.6h-49.5c-0.9,0-1.6-0.7-1.6-1.6V10.2
			C141.9,9.3,142.7,8.6,143.5,8.6z"/>
		<g>
			<defs>
				<path id="SVGID_1_" d="M143.5,8.6H193c0.9,0,1.6,0.7,1.6,1.6v33.7h30.2V10.2c0-0.9,0.7-1.6,1.6-1.6H276c0.9,0,1.6,0.7,1.6,1.6
					V126c0,0.9-0.7,1.6-1.6,1.6h-49.5c-0.9,0-1.6-0.7-1.6-1.6V93.2h-30.2V126c0,0.9-0.7,1.6-1.6,1.6h-49.5c-0.9,0-1.6-0.7-1.6-1.6
					V10.2C141.9,9.3,142.7,8.6,143.5,8.6z"/>
			</defs>
			<clipPath id="SVGID_2_">
				<use xlink:href="#SVGID_1_"  style="overflow:visible;"/>
			</clipPath>
			<g class="st1">
				<g>
					<polygon id="_x31_" class="st2" points="194.7,93.2 142.9,128.4 194.6,128.4 					"/>
					<polygon class="st2" points="224.9,43.7 276.7,8.5 224.9,8.5 					"/>
				</g>
			</g>
		</g>
		<path class="st3" d="M143.5,8.6H193c0.9,0,1.6,0.7,1.6,1.6v33.7h30.2V10.2c0-0.9,0.7-1.6,1.6-1.6H276c0.9,0,1.6,0.7,1.6,1.6V126
			c0,0.9-0.7,1.6-1.6,1.6h-49.5c-0.9,0-1.6-0.7-1.6-1.6V93.2h-30.2V126c0,0.9-0.7,1.6-1.6,1.6h-49.5c-0.9,0-1.6-0.7-1.6-1.6V10.2
			C141.9,9.3,142.7,8.6,143.5,8.6z"/>
		<polygon class="st2" points="141.9,61.1 277.6,61.1 277.6,75.1 141.9,75.1 		"/>
		<polygon class="st2" points="110.9,264.9 90.5,264.9 90.5,229.4 95.7,229.4 95.7,259.7 110.9,259.7 		"/>
		<path class="st2" d="M133.5,229.4c2.5,0,4.8,0.5,6.9,1.4c2.2,0.9,4,2.2,5.6,3.8c1.6,1.6,2.9,3.5,3.8,5.6c0.9,2.2,1.4,4.5,1.4,6.9
			c0,2.4-0.5,4.8-1.4,6.9c-0.9,2.1-2.2,4-3.8,5.6c-1.6,1.6-3.5,2.9-5.6,3.8c-2.2,0.9-4.5,1.4-6.9,1.4s-4.8-0.5-6.9-1.4
			c-2.2-0.9-4-2.2-5.6-3.8c-1.6-1.6-2.9-3.5-3.8-5.6c-0.9-2.2-1.4-4.5-1.4-6.9c0-2.5,0.5-4.8,1.4-6.9s2.2-4,3.8-5.6
			c1.6-1.6,3.5-2.9,5.6-3.8C128.8,229.9,131.1,229.4,133.5,229.4z M133.5,259.1c1.6,0,3.2-0.3,4.6-0.9s2.7-1.5,3.8-2.5
			c1.1-1.1,1.9-2.4,2.6-3.8c0.6-1.4,0.9-3,0.9-4.6c0-1.7-0.3-3.2-0.9-4.6c-0.6-1.4-1.5-2.7-2.6-3.8c-1.1-1.1-2.4-2-3.8-2.6
			s-3-0.9-4.6-0.9c-1.7,0-3.2,0.3-4.7,0.9c-1.4,0.6-2.7,1.5-3.8,2.6c-1.1,1.1-1.9,2.3-2.6,3.8c-0.6,1.4-0.9,3-0.9,4.6
			c0,1.6,0.3,3.2,0.9,4.6c0.6,1.4,1.5,2.7,2.6,3.8c1.1,1,2.4,1.9,3.8,2.5C130.3,258.7,131.9,259.1,133.5,259.1z"/>
		<path class="st2" d="M185,247.8v13.5c-1.5,1.3-3.2,2.2-5.2,2.8c-1.9,0.6-3.9,0.9-6.1,0.9c-2.5,0-4.8-0.5-6.9-1.4
			c-2.2-0.9-4-2.2-5.6-3.8c-1.6-1.6-2.9-3.5-3.8-5.6c-0.9-2.2-1.4-4.5-1.4-6.9c0-2.4,0.5-4.8,1.4-6.9c0.9-2.2,2.2-4.1,3.8-5.7
			c1.6-1.6,3.5-2.9,5.6-3.8c2.2-0.9,4.5-1.4,6.9-1.4c1.4,0,2.6,0.1,3.7,0.4c1.1,0.2,2.2,0.5,3.1,0.9c0.9,0.4,1.8,0.8,2.5,1.2
			c0.7,0.5,1.4,0.9,2,1.3l-2.6,5.1c-0.4-0.4-0.9-0.8-1.4-1.2s-1.2-0.8-2-1.1c-0.7-0.3-1.5-0.6-2.4-0.8c-0.9-0.2-1.7-0.3-2.6-0.3
			c-1.7,0-3.3,0.3-4.8,1c-1.5,0.7-2.8,1.5-3.9,2.7c-1.1,1.1-2,2.4-2.6,3.9c-0.7,1.5-1,3.1-1,4.8c0,1.7,0.3,3.3,1,4.8
			c0.6,1.5,1.5,2.8,2.6,3.9c1.1,1.1,2.4,2,3.9,2.6c1.5,0.7,3.1,1,4.8,1c0.9,0,1.9-0.1,2.9-0.4c1-0.3,1.8-0.6,2.4-1.1v-5.5h-10.2
			l2.9-4.9H185z"/>
		<polygon class="st2" points="195.5,229.4 195.5,264.9 190.3,264.9 190.3,229.4 		"/>
		<polygon class="st2" points="240.8,264.9 240.8,234.6 230.8,234.6 230.8,229.4 255.9,229.4 255.9,234.6 246,234.6 246,264.9 		"/>
		<polygon class="st2" points="266.4,229.4 266.4,264.9 261.2,264.9 261.2,229.4 		"/>
		<path class="st2" d="M299.1,261.9c-1.6,0.9-2.9,1.6-4.1,2.1c-1.2,0.4-2.5,0.7-3.8,0.9c-2.6,0.3-5.2,0-7.5-0.8
			c-2.4-0.9-4.4-2.1-6.2-3.7c-1.8-1.6-3.2-3.6-4.3-5.8c-1-2.3-1.6-4.6-1.6-7.2c0-2.5,0.5-4.8,1.4-7.1c1-2.2,2.3-4.2,4-5.8
			c1.7-1.6,3.7-2.9,6.1-3.8c2.3-0.9,4.9-1.2,7.8-1c1.1,0.1,2.2,0.2,3.2,0.5c1,0.3,1.9,0.7,2.7,1.1l-2.3,4.6c-1-0.5-1.9-0.8-2.7-0.9
			c-0.7-0.1-1.6-0.2-2.5-0.2c-1.7,0-3.3,0.3-4.8,1c-1.5,0.7-2.8,1.6-4,2.7c-1.1,1.1-2.1,2.5-2.7,4c-0.7,1.5-1,3.1-1,4.8
			c0,1.7,0.3,3.3,1,4.8s1.6,2.8,2.8,4c1.2,1.1,2.5,2.1,4,2.7c1.5,0.7,3.1,1,4.7,1c0.6,0,1.2,0,1.7-0.1c0.5-0.1,1-0.1,1.6-0.3
			c0.5-0.2,1.1-0.4,1.6-0.6c0.6-0.3,1.2-0.6,1.9-1L299.1,261.9z"/>
		<polygon class="st0" points="32.7,155.4 42.8,155.4 42.8,178 71.1,178 71.1,155.4 81.2,155.4 81.2,206.7 71.1,206.7 71.1,185.1 
			42.9,185.1 42.9,206.7 32.7,206.7 		"/>
		<polygon class="st0" points="91.3,155.4 133.5,155.4 133.5,162.5 101.4,162.5 101.4,178 127.2,178 127.2,185.1 101.4,185.1 
			101.4,199.5 133.5,199.5 133.5,206.7 91.3,206.7 		"/>
		<path class="st0" d="M178.3,206.7l-10.6-17.4c-0.6,0-1.2,0.1-1.8,0.1c-0.6,0-1.1,0-1.6,0h-10.6v17.3h-10.1v-51.3h10h10.6
			c1.2,0,2.7,0,4.3,0.1c1.6,0.1,3.3,0.3,5,0.5c1.7,0.3,3.3,0.8,5,1.5c1.6,0.7,3.1,1.6,4.4,2.9c1.3,1.2,2.3,2.9,3.1,4.8
			c0.8,2,1.2,4.3,1.2,7.1c0,2.3-0.3,4.2-0.7,5.9c-0.5,1.7-1.2,3.1-2.1,4.3c-0.9,1.2-1.9,2.2-3.1,3c-1.1,0.8-2.4,1.4-3.6,2l11.8,19.1
			H178.3z M160.3,181.8c1.8,0,3.8,0,5.8-0.1c2-0.1,3.8-0.4,5.4-0.9c1.6-0.6,2.9-1.5,4-2.8c1-1.3,1.6-3.2,1.6-5.7
			c0-2.5-0.5-4.4-1.6-5.7c-1-1.3-2.4-2.2-4-2.7c-1.6-0.6-3.4-0.9-5.4-0.9c-2-0.1-3.9-0.1-5.7-0.1h-6.7v18.9H160.3z"/>
		<polygon class="st0" points="209.6,155.4 209.6,206.7 199.6,206.7 199.6,155.4 		"/>
		<polygon class="st0" points="239.1,206.7 239.1,162.9 219.8,162.9 219.8,155.4 268.2,155.4 268.2,162.9 249.1,162.9 249.1,206.7 
					"/>
		<path class="st0" d="M277.5,155.4h10.1v33.5c0,0.4,0.2,1.1,0.6,2.2c0.4,1.1,1.1,2.3,2.2,3.5c1.1,1.2,2.7,2.3,4.7,3.2
			c2,0.9,4.7,1.4,8,1.4c3.2,0,5.9-0.5,7.9-1.4c2-0.9,3.5-2,4.7-3.2c1.1-1.2,1.8-2.3,2.2-3.5c0.4-1.1,0.6-1.8,0.6-2.2v-33.5h10.1
			v33.5c0,0.3-0.1,0.9-0.3,1.9c-0.2,1-0.6,2.1-1.2,3.4c-0.6,1.3-1.5,2.7-2.6,4.2c-1.1,1.5-2.6,2.8-4.5,4.1c-1.9,1.2-4.2,2.3-6.9,3.1
			c-2.7,0.8-6,1.2-9.9,1.2c-3.9,0-7.2-0.4-9.9-1.1c-2.7-0.8-5.1-1.7-6.9-2.9c-1.9-1.2-3.4-2.5-4.5-3.9c-1.1-1.4-2-2.8-2.6-4.1
			c-0.6-1.3-1-2.5-1.2-3.5c-0.2-1-0.3-1.8-0.3-2.2V155.4z"/>
		<path class="st0" d="M371,178.4c2.3,0.5,4.4,1.1,6.4,1.9c2.5,1,4.6,2.4,6.3,4.1c1.7,1.8,2.5,4.2,2.5,7.3c0,2-0.6,3.9-1.7,5.8
			c-1.2,1.8-2.8,3.4-5,4.8c-2.2,1.4-4.8,2.4-8,3.2c-3.1,0.8-6.7,1.2-10.7,1.2c-3.2,0-6-0.2-8.4-0.7c-2.4-0.5-4.5-1-6.4-1.6
			c-1.8-0.7-3.4-1.4-4.8-2.1c-1.4-0.7-2.6-1.3-3.6-1.8l5.2-6.3c3.7,2.1,7,3.5,10.2,4.2c3.1,0.7,5.7,1.1,7.7,1.1
			c1.9,0,3.7-0.2,5.5-0.5c1.8-0.3,3.5-0.8,4.9-1.4c1.5-0.7,2.7-1.4,3.6-2.4c0.9-1,1.3-2.1,1.3-3.3c0-1.4-0.5-2.6-1.5-3.4
			s-2.3-1.6-3.9-2.2c-1.6-0.6-3.4-1.1-5.5-1.4c-2-0.4-4.1-0.8-6.3-1.2c-1.9-0.4-3.7-0.8-5.5-1.3c-2.3-0.5-4.4-1.1-6.4-1.9
			c-2.6-1-4.7-2.4-6.3-4.1c-1.7-1.8-2.5-4.2-2.5-7.3c0-2,0.6-3.9,1.7-5.8c1.2-1.8,2.8-3.4,5-4.8c2.2-1.4,4.8-2.4,8-3.2
			c3.1-0.8,6.7-1.2,10.7-1.2c3.2,0,6,0.2,8.4,0.7c2.4,0.5,4.5,1,6.4,1.7c1.8,0.7,3.4,1.3,4.8,2.1c1.4,0.7,2.6,1.3,3.6,1.8l-5.3,6.3
			c-3.6-2.1-7-3.5-10.1-4.2s-5.7-1.1-7.8-1.1c-1.8,0-3.7,0.1-5.5,0.5c-1.8,0.3-3.5,0.8-5,1.4c-1.5,0.7-2.7,1.4-3.5,2.4
			c-0.9,1-1.3,2.1-1.3,3.3c0,1.4,0.5,2.6,1.5,3.4s2.3,1.6,3.9,2.2c1.6,0.6,3.4,1.1,5.5,1.4c2.1,0.4,4.2,0.8,6.3,1.2
			C367.3,177.5,369.2,177.9,371,178.4z"/>
		<path class="st2" d="M321.1,245.9c1.2,0.3,2.2,0.7,3.3,1.3c1.3,0.7,2.4,1.6,3.3,2.8c0.9,1.2,1.3,2.9,1.3,5c0,1.4-0.3,2.6-0.9,3.9
			c-0.6,1.2-1.4,2.3-2.6,3.2c-1.1,0.9-2.5,1.6-4.1,2.2c-1.6,0.5-3.4,0.8-5.5,0.8c-1.6,0-3.1-0.2-4.3-0.5c-1.2-0.3-2.3-0.7-3.3-1.1
			c-0.9-0.4-1.8-0.9-2.5-1.4c-0.7-0.5-1.3-0.9-1.8-1.2l2.7-4.2c1.9,1.4,3.6,2.3,5.2,2.8c1.6,0.5,2.9,0.7,3.9,0.7
			c1,0,1.9-0.1,2.8-0.3c0.9-0.2,1.8-0.6,2.5-1c0.7-0.4,1.4-1,1.8-1.6c0.5-0.7,0.7-1.4,0.7-2.3c0-0.9-0.3-1.7-0.8-2.3
			c-0.5-0.6-1.2-1.1-2-1.5s-1.8-0.7-2.8-1c-1-0.3-2.1-0.5-3.2-0.8c-1-0.3-1.9-0.5-2.8-0.9c-1.2-0.3-2.2-0.7-3.3-1.2
			c-1.3-0.7-2.4-1.6-3.3-2.8c-0.9-1.2-1.3-2.8-1.3-4.9c0-1.4,0.3-2.7,0.9-3.9c0.6-1.2,1.4-2.3,2.6-3.2c1.1-0.9,2.5-1.6,4.1-2.2
			c1.6-0.5,3.4-0.8,5.5-0.8c1.6,0,3.1,0.1,4.3,0.5c1.2,0.3,2.3,0.7,3.3,1.1c0.9,0.4,1.8,0.9,2.5,1.4c0.7,0.5,1.3,0.9,1.8,1.2
			l-2.7,4.3c-1.9-1.4-3.6-2.3-5.2-2.8c-1.6-0.5-2.9-0.8-3.9-0.8c-1,0-1.9,0.1-2.8,0.3c-0.9,0.2-1.8,0.5-2.5,1
			c-0.7,0.4-1.4,1-1.8,1.6c-0.5,0.7-0.7,1.4-0.7,2.2c0,1,0.3,1.7,0.8,2.3c0.5,0.6,1.2,1.1,2,1.5c0.8,0.4,1.8,0.7,2.8,1
			c1,0.3,2.1,0.5,3.2,0.8C319.2,245.3,320.1,245.6,321.1,245.9z"/>
		<path class="st2" d="M218,245.9c1.2,0.3,2.3,0.7,3.3,1.3c1.3,0.7,2.4,1.6,3.2,2.8c0.9,1.2,1.3,2.9,1.3,5c0,1.4-0.3,2.6-0.9,3.9
			c-0.6,1.2-1.4,2.3-2.6,3.2c-1.1,0.9-2.5,1.6-4.1,2.2c-1.6,0.5-3.4,0.8-5.5,0.8c-1.6,0-3.1-0.2-4.3-0.5c-1.2-0.3-2.3-0.7-3.3-1.1
			c-1-0.4-1.8-0.9-2.5-1.4c-0.7-0.5-1.3-0.9-1.8-1.2l2.7-4.2c1.9,1.4,3.6,2.3,5.2,2.8c1.6,0.5,2.9,0.7,4,0.7c0.9,0,1.9-0.1,2.8-0.3
			c0.9-0.2,1.8-0.6,2.5-1c0.8-0.4,1.4-1,1.8-1.6c0.5-0.7,0.7-1.4,0.7-2.3c0-0.9-0.2-1.7-0.7-2.3s-1.2-1.1-2-1.5s-1.8-0.7-2.8-1
			c-1-0.3-2.1-0.5-3.2-0.8c-1-0.3-1.9-0.5-2.8-0.9c-1.2-0.3-2.2-0.7-3.3-1.2c-1.3-0.7-2.4-1.6-3.2-2.8c-0.9-1.2-1.3-2.8-1.3-4.9
			c0-1.4,0.3-2.7,0.9-3.9c0.6-1.2,1.4-2.3,2.5-3.2c1.1-0.9,2.5-1.6,4.1-2.2c1.6-0.5,3.4-0.8,5.5-0.8c1.6,0,3.1,0.1,4.3,0.5
			c1.2,0.3,2.3,0.7,3.3,1.1c0.9,0.4,1.8,0.9,2.4,1.4c0.7,0.5,1.3,0.9,1.8,1.2l-2.7,4.3c-1.8-1.4-3.6-2.3-5.2-2.8
			c-1.6-0.5-2.9-0.8-4-0.8c-0.9,0-1.9,0.1-2.8,0.3c-0.9,0.2-1.8,0.5-2.5,1c-0.8,0.4-1.4,1-1.8,1.6c-0.5,0.7-0.7,1.4-0.7,2.2
			c0,1,0.3,1.7,0.7,2.3c0.5,0.6,1.2,1.1,2,1.5c0.8,0.4,1.8,0.7,2.8,1c1.1,0.3,2.1,0.5,3.2,0.8C216.2,245.3,217.1,245.6,218,245.9z"
			/>
	</g>
</g>
</svg>
